<svg width="43" height="43" viewBox="0 0 43 43" fill="none" xmlns="http://www.w3.org/2000/svg">
<circle cx="12.9954" cy="13" r="30" fill="url(#paint0_linear_714_3622)"/>
<path d="M30.6953 17.0125C30.6953 23.575 20.965 28.8869 20.5506 29.1063C20.4414 29.165 20.3193 29.1958 20.1953 29.1958C20.0713 29.1958 19.9492 29.165 19.84 29.1063C19.4256 28.8869 9.69531 23.575 9.69531 17.0125C9.69705 15.4715 10.31 13.9941 11.3997 12.9044C12.4894 11.8147 13.9668 11.2017 15.5078 11.2C17.4438 11.2 19.1388 12.0325 20.1953 13.4397C21.2519 12.0325 22.9469 11.2 24.8828 11.2C26.4239 11.2017 27.9013 11.8147 28.991 12.9044C30.0806 13.9941 30.6936 15.4715 30.6953 17.0125Z" fill="url(#paint1_linear_714_3622)"/>
<defs>
<linearGradient id="paint0_linear_714_3622" x1="-17.0046" y1="-17" x2="46.7411" y2="45.8539" gradientUnits="userSpaceOnUse">
<stop offset="0.594876" stop-color="white"/>
<stop offset="1" stop-color="#C838EC" stop-opacity="0.1"/>
</linearGradient>
<linearGradient id="paint1_linear_714_3622" x1="16.1989" y1="15.4696" x2="24.3687" y2="15.4696" gradientUnits="userSpaceOnUse">
<stop stop-color="#8338EC"/>
<stop offset="1" stop-color="#CB38E7"/>
</linearGradient>
</defs>
</svg>
