<svg width="43" height="43" viewBox="0 0 43 43" fill="none" xmlns="http://www.w3.org/2000/svg">
<circle cx="12.9954" cy="13" r="30" fill="url(#paint0_linear_714_3627)"/>
<path d="M24.8828 10.825C22.9994 10.825 21.3278 11.5684 20.1953 12.8462C19.0628 11.5684 17.3913 10.825 15.5078 10.825C13.8674 10.8269 12.2947 11.4795 11.1348 12.6394C9.97483 13.7994 9.3223 15.372 9.32031 17.0125C9.32031 23.7943 19.24 29.2131 19.6619 29.4409C19.8258 29.5292 20.0091 29.5754 20.1953 29.5754C20.3815 29.5754 20.5648 29.5292 20.7288 29.4409C21.1506 29.2131 31.0703 23.7943 31.0703 17.0125C31.0683 15.372 30.4158 13.7994 29.2558 12.6394C28.0959 11.4795 26.5232 10.8269 24.8828 10.825ZM24.3681 24.1712C23.0624 25.2792 21.6667 26.2764 20.1953 27.1525C18.724 26.2764 17.3282 25.2792 16.0225 24.1712C13.9909 22.4284 11.5703 19.7706 11.5703 17.0125C11.5703 15.9682 11.9852 14.9666 12.7236 14.2282C13.462 13.4898 14.4635 13.075 15.5078 13.075C17.1766 13.075 18.5734 13.9562 19.1538 15.3756C19.2382 15.5825 19.3824 15.7596 19.5679 15.8842C19.7534 16.0088 19.9718 16.0754 20.1953 16.0754C20.4188 16.0754 20.6372 16.0088 20.8227 15.8842C21.0082 15.7596 21.1524 15.5825 21.2369 15.3756C21.8172 13.9562 23.2141 13.075 24.8828 13.075C25.9271 13.075 26.9286 13.4898 27.667 14.2282C28.4055 14.9666 28.8203 15.9682 28.8203 17.0125C28.8203 19.7706 26.3997 22.4284 24.3681 24.1712Z" fill="#D8D8D8"/>
<defs>
<linearGradient id="paint0_linear_714_3627" x1="-17.0046" y1="-17" x2="46.7411" y2="45.8539" gradientUnits="userSpaceOnUse">
<stop offset="0.594876" stop-color="white"/>
<stop offset="1" stop-color="#D8D8D8"/>
</linearGradient>
</defs>
</svg>
