<svg width="22" height="19" viewBox="0 0 22 19" fill="none" xmlns="http://www.w3.org/2000/svg">
<path d="M21.6953 6.01251C21.6953 12.575 11.965 17.8869 11.5506 18.1063C11.4414 18.165 11.3193 18.1958 11.1953 18.1958C11.0713 18.1958 10.9492 18.165 10.84 18.1063C10.4256 17.8869 0.695312 12.575 0.695312 6.01251C0.697049 4.47148 1.30999 2.99405 2.39967 1.90437C3.48935 0.814694 4.96678 0.201749 6.50781 0.200012C8.44375 0.200012 10.1388 1.03251 11.1953 2.4397C12.2519 1.03251 13.9469 0.200012 15.8828 0.200012C17.4239 0.201749 18.9013 0.814694 19.991 1.90437C21.0806 2.99405 21.6936 4.47148 21.6953 6.01251Z" fill="url(#paint0_linear_764_146)"/>
<defs>
<linearGradient id="paint0_linear_764_146" x1="7.19894" y1="4.46956" x2="15.3687" y2="4.46957" gradientUnits="userSpaceOnUse">
<stop stopColor="#8338EC"/>
<stop offset="1" stop-color="#CB38E7"/>
</linearGradient>
</defs>
</svg>
